<?xml version="1.0" encoding="UTF-8" standalone="no"?>
<!DOCTYPE svg PUBLIC "-//W3C//DTD SVG 1.1//EN"
 "http://www.w3.org/Graphics/SVG/1.1/DTD/svg11.dtd">
<!-- Generated by graphviz version 14.1.4 (20260321.0153)
 -->
<!-- Pages: 1 -->
<svg width="3298pt" height="230pt"
 viewBox="0.00 0.00 3298.00 230.00" xmlns="http://www.w3.org/2000/svg" xmlns:xlink="http://www.w3.org/1999/xlink">
<g id="graph0" class="graph" transform="scale(1 1) rotate(0) translate(4 226)">
<polygon fill="#ffffff" stroke="none" points="-4,4 -4,-226 3294.25,-226 3294.25,4 -4,4"/>
<!-- CN10 -->
<g id="node1" class="node">
<title>CN10</title>
<polygon fill="#ffffff" stroke="black" points="1171.25,-213.75 0,-213.75 0,0 1171.25,0 1171.25,-213.75"/>
<polygon fill="none" stroke="black" points="0,-190 0,-213.75 1171.25,-213.75 1171.25,-190 0,-190"/>
<text xml:space="preserve" text-anchor="start" x="568.38" y="-197" font-family="arial" font-size="14.00">CN10</text>
<polygon fill="none" stroke="black" points="0,-166.25 0,-190 453.67,-190 453.67,-166.25 0,-166.25"/>
<text xml:space="preserve" text-anchor="start" x="134.96" y="-173.25" font-family="arial" font-size="14.00">TE AMPMODU Mod II 280360</text>
<polygon fill="none" stroke="black" points="453.67,-166.25 453.67,-190 871.33,-190 871.33,-166.25 453.67,-166.25"/>
<text xml:space="preserve" text-anchor="start" x="588.62" y="-173.25" font-family="arial" font-size="14.00">female receptacle, 6 pos</text>
<polygon fill="none" stroke="black" points="871.33,-166.25 871.33,-190 1171.25,-190 1171.25,-166.25 871.33,-166.25"/>
<text xml:space="preserve" text-anchor="start" x="1006.29" y="-173.25" font-family="arial" font-size="14.00">6&#45;pin</text>
<polygon fill="none" stroke="black" points="0,-142.5 0,-166.25 641.12,-166.25 641.12,-142.5 0,-142.5"/>
<text xml:space="preserve" text-anchor="start" x="304.44" y="-149.5" font-family="arial" font-size="14.00">+12V</text>
<polygon fill="none" stroke="black" points="641.12,-142.5 641.12,-166.25 1171.25,-166.25 1171.25,-142.5 641.12,-142.5"/>
<text xml:space="preserve" text-anchor="start" x="902.44" y="-149.5" font-family="arial" font-size="14.00">1</text>
<polygon fill="none" stroke="black" points="0,-118.75 0,-142.5 641.12,-142.5 641.12,-118.75 0,-118.75"/>
<text xml:space="preserve" text-anchor="start" x="272.94" y="-125.75" font-family="arial" font-size="14.00">TX_TO_GICAR</text>
<polygon fill="none" stroke="black" points="641.12,-118.75 641.12,-142.5 1171.25,-142.5 1171.25,-118.75 641.12,-118.75"/>
<text xml:space="preserve" text-anchor="start" x="902.44" y="-125.75" font-family="arial" font-size="14.00">2</text>
<polygon fill="none" stroke="black" points="0,-95 0,-118.75 641.12,-118.75 641.12,-95 0,-95"/>
<text xml:space="preserve" text-anchor="start" x="261.31" y="-102" font-family="arial" font-size="14.00">RX_FROM_GICAR</text>
<polygon fill="none" stroke="black" points="641.12,-95 641.12,-118.75 1171.25,-118.75 1171.25,-95 641.12,-95"/>
<text xml:space="preserve" text-anchor="start" x="902.44" y="-102" font-family="arial" font-size="14.00">3</text>
<polygon fill="none" stroke="black" points="0,-71.25 0,-95 641.12,-95 641.12,-71.25 0,-71.25"/>
<text xml:space="preserve" text-anchor="start" x="305.19" y="-78.25" font-family="arial" font-size="14.00">GND</text>
<polygon fill="none" stroke="black" points="641.12,-71.25 641.12,-95 1171.25,-95 1171.25,-71.25 641.12,-71.25"/>
<text xml:space="preserve" text-anchor="start" x="902.44" y="-78.25" font-family="arial" font-size="14.00">4</text>
<polygon fill="none" stroke="black" points="0,-47.5 0,-71.25 641.12,-71.25 641.12,-47.5 0,-47.5"/>
<text xml:space="preserve" text-anchor="start" x="286.06" y="-54.5" font-family="arial" font-size="14.00">3V3_OLED</text>
<polygon fill="none" stroke="black" points="641.12,-47.5 641.12,-71.25 1171.25,-71.25 1171.25,-47.5 641.12,-47.5"/>
<text xml:space="preserve" text-anchor="start" x="902.44" y="-54.5" font-family="arial" font-size="14.00">5</text>
<polygon fill="none" stroke="black" points="0,-23.75 0,-47.5 641.12,-47.5 641.12,-23.75 0,-23.75"/>
<text xml:space="preserve" text-anchor="start" x="289.06" y="-30.75" font-family="arial" font-size="14.00">3V3_MCU</text>
<polygon fill="none" stroke="black" points="641.12,-23.75 641.12,-47.5 1171.25,-47.5 1171.25,-23.75 641.12,-23.75"/>
<text xml:space="preserve" text-anchor="start" x="902.44" y="-30.75" font-family="arial" font-size="14.00">6</text>
<polygon fill="none" stroke="black" points="0,0 0,-23.75 1171.25,-23.75 1171.25,0 0,0"/>
<text xml:space="preserve" text-anchor="start" x="4" y="-7" font-family="arial" font-size="14.00">Polarization comes from the header, not this housing &#45; check whether CN10 is shrouded. If it is a bare pin header, mark pin 1 and continuity&#45;check before the first plug&#45;in. Pins 1, 5, 6 unpopulated.</text>
</g>
<!-- GICAR_SIDE -->
<g id="node4" class="node">
<title>GICAR_SIDE</title>
<polygon fill="#ffffff" stroke="black" points="1703,-222 1315.25,-222 1315.25,-57.75 1703,-57.75 1703,-222"/>
<polygon fill="none" stroke="black" points="1315.25,-198.25 1315.25,-222 1703,-222 1703,-198.25 1315.25,-198.25"/>
<text xml:space="preserve" text-anchor="start" x="1467.88" y="-205.25" font-family="arial" font-size="14.00">GICAR_SIDE</text>
<polygon fill="none" stroke="black" points="1315.25,-174.5 1315.25,-198.25 1425.25,-198.25 1425.25,-174.5 1315.25,-174.5"/>
<text xml:space="preserve" text-anchor="start" x="1363.12" y="-181.5" font-family="arial" font-size="14.00">3x</text>
<polygon fill="none" stroke="black" points="1425.25,-174.5 1425.25,-198.25 1572.75,-198.25 1572.75,-174.5 1425.25,-174.5"/>
<text xml:space="preserve" text-anchor="start" x="1473.12" y="-181.5" font-family="arial" font-size="14.00">26 AWG</text>
<polygon fill="none" stroke="black" points="1572.75,-174.5 1572.75,-198.25 1703,-198.25 1703,-174.5 1572.75,-174.5"/>
<text xml:space="preserve" text-anchor="start" x="1620.62" y="-181.5" font-family="arial" font-size="14.00">0.3 m</text>
<text xml:space="preserve" text-anchor="start" x="1399.38" y="-159.75" font-family="arial" font-size="14.00"> </text>
<text xml:space="preserve" text-anchor="start" x="1328.88" y="-140" font-family="arial" font-size="14.00">CN10:2:TX_TO_GICAR</text>
<text xml:space="preserve" text-anchor="start" x="1489.25" y="-140" font-family="arial" font-size="14.00"> &#160;&#160;&#160;&#160;1:WH &#160;&#160;&#160;</text>
<text xml:space="preserve" text-anchor="start" x="1562.25" y="-140" font-family="arial" font-size="14.00">DIVIDER:1:TX_GICAR</text>
<polygon fill="#000000" stroke="none" points="1315.25,-133 1315.25,-135 1703,-135 1703,-133 1315.25,-133"/>
<polygon fill="#ffffff" stroke="none" points="1315.25,-131 1315.25,-133 1703,-133 1703,-131 1315.25,-131"/>
<polygon fill="#000000" stroke="none" points="1315.25,-129 1315.25,-131 1703,-131 1703,-129 1315.25,-129"/>
<text xml:space="preserve" text-anchor="start" x="1317.25" y="-114.25" font-family="arial" font-size="14.00">CN10:3:RX_FROM_GICAR</text>
<text xml:space="preserve" text-anchor="start" x="1490.38" y="-114.25" font-family="arial" font-size="14.00"> &#160;&#160;&#160;&#160;2:GN &#160;&#160;&#160;</text>
<text xml:space="preserve" text-anchor="start" x="1561.5" y="-114.25" font-family="arial" font-size="14.00">DIVIDER:2:RX_GICAR</text>
<polygon fill="#000000" stroke="none" points="1315.25,-107.25 1315.25,-109.25 1703,-109.25 1703,-107.25 1315.25,-107.25"/>
<polygon fill="#00ff00" stroke="none" points="1315.25,-105.25 1315.25,-107.25 1703,-107.25 1703,-105.25 1315.25,-105.25"/>
<polygon fill="#000000" stroke="none" points="1315.25,-103.25 1315.25,-105.25 1703,-105.25 1703,-103.25 1315.25,-103.25"/>
<text xml:space="preserve" text-anchor="start" x="1361.12" y="-88.5" font-family="arial" font-size="14.00">CN10:4:GND</text>
<text xml:space="preserve" text-anchor="start" x="1491.88" y="-88.5" font-family="arial" font-size="14.00"> &#160;&#160;&#160;&#160;3:BK &#160;&#160;&#160;</text>
<text xml:space="preserve" text-anchor="start" x="1581" y="-88.5" font-family="arial" font-size="14.00">DIVIDER:5:GND</text>
<polygon fill="#000000" stroke="none" points="1315.25,-81.5 1315.25,-83.5 1703,-83.5 1703,-81.5 1315.25,-81.5"/>
<polygon fill="#000000" stroke="none" points="1315.25,-79.5 1315.25,-81.5 1703,-81.5 1703,-79.5 1315.25,-79.5"/>
<polygon fill="#000000" stroke="none" points="1315.25,-77.5 1315.25,-79.5 1703,-79.5 1703,-77.5 1315.25,-77.5"/>
<text xml:space="preserve" text-anchor="start" x="1399.38" y="-62.75" font-family="arial" font-size="14.00"> </text>
</g>
<!-- CN10&#45;&#45;GICAR_SIDE -->
<g id="edge1" class="edge">
<title>CN10:e&#45;&#45;GICAR_SIDE:w</title>
<path fill="none" stroke="#000000" stroke-width="2" d="M1171.25,-128.63C1235.42,-128.63 1251.42,-130.01 1315.25,-130"/>
<path fill="none" stroke="#ffffff" stroke-width="2" d="M1171.25,-130.62C1235.25,-130.62 1251.25,-132 1315.25,-132"/>
<path fill="none" stroke="#000000" stroke-width="2" d="M1171.25,-132.62C1235.08,-132.62 1251.08,-133.99 1315.25,-134"/>
</g>
<!-- CN10&#45;&#45;GICAR_SIDE -->
<g id="edge3" class="edge">
<title>CN10:e&#45;&#45;GICAR_SIDE:w</title>
<path fill="none" stroke="#000000" stroke-width="2" d="M1171.25,-104.88C1235.17,-104.88 1251.17,-104.25 1315.25,-104.25"/>
<path fill="none" stroke="#00ff00" stroke-width="2" d="M1171.25,-106.87C1235.25,-106.87 1251.25,-106.25 1315.25,-106.25"/>
<path fill="none" stroke="#000000" stroke-width="2" d="M1171.25,-108.87C1235.33,-108.87 1251.33,-108.25 1315.25,-108.25"/>
</g>
<!-- CN10&#45;&#45;GICAR_SIDE -->
<g id="edge5" class="edge">
<title>CN10:e&#45;&#45;GICAR_SIDE:w</title>
<path fill="none" stroke="#000000" stroke-width="2" d="M1171.25,-81.13C1234.94,-81.15 1250.92,-78.53 1315.25,-78.5"/>
<path fill="none" stroke="#000000" stroke-width="2" d="M1171.25,-83.12C1235.26,-83.13 1251.24,-80.5 1315.25,-80.5"/>
<path fill="none" stroke="#000000" stroke-width="2" d="M1171.25,-85.12C1235.58,-85.1 1251.56,-82.47 1315.25,-82.5"/>
</g>
<!-- DIVIDER -->
<g id="node2" class="node">
<title>DIVIDER</title>
<polygon fill="#ffffff" stroke="black" points="2314.75,-191.88 1847,-191.88 1847,-1.88 2314.75,-1.88 2314.75,-191.88"/>
<polygon fill="none" stroke="black" points="1847,-168.12 1847,-191.88 2314.75,-191.88 2314.75,-168.12 1847,-168.12"/>
<text xml:space="preserve" text-anchor="start" x="2053.5" y="-175.12" font-family="arial" font-size="14.00">DIVIDER</text>
<polygon fill="none" stroke="black" points="1847,-144.38 1847,-168.12 2008.42,-168.12 2008.42,-144.38 1847,-144.38"/>
<text xml:space="preserve" text-anchor="start" x="1881.21" y="-151.38" font-family="arial" font-size="14.00">Divider network</text>
<polygon fill="none" stroke="black" points="2008.42,-144.38 2008.42,-168.12 2216.33,-168.12 2216.33,-144.38 2008.42,-144.38"/>
<text xml:space="preserve" text-anchor="start" x="2042.62" y="-151.38" font-family="arial" font-size="14.00">R1/R2/R3 in heatshrink</text>
<polygon fill="none" stroke="black" points="2216.33,-144.38 2216.33,-168.12 2314.75,-168.12 2314.75,-144.38 2216.33,-144.38"/>
<text xml:space="preserve" text-anchor="start" x="2250.54" y="-151.38" font-family="arial" font-size="14.00">5&#45;pin</text>
<polygon fill="none" stroke="black" points="1847,-120.62 1847,-144.38 1980.42,-144.38 1980.42,-120.62 1847,-120.62"/>
<text xml:space="preserve" text-anchor="start" x="1909.96" y="-127.62" font-family="arial" font-size="14.00">1</text>
<polygon fill="none" stroke="black" points="1980.42,-120.62 1980.42,-144.38 2181.33,-144.38 2181.33,-120.62 1980.42,-120.62"/>
<text xml:space="preserve" text-anchor="start" x="2046.75" y="-127.62" font-family="arial" font-size="14.00">TX_GICAR</text>
<polygon fill="none" stroke="black" points="2181.33,-120.62 2181.33,-144.38 2314.75,-144.38 2314.75,-120.62 2181.33,-120.62"/>
<text xml:space="preserve" text-anchor="start" x="2244.29" y="-127.62" font-family="arial" font-size="14.00">1</text>
<polygon fill="none" stroke="black" points="1847,-96.88 1847,-120.62 1980.42,-120.62 1980.42,-96.88 1847,-96.88"/>
<text xml:space="preserve" text-anchor="start" x="1909.96" y="-103.88" font-family="arial" font-size="14.00">2</text>
<polygon fill="none" stroke="black" points="1980.42,-96.88 1980.42,-120.62 2181.33,-120.62 2181.33,-96.88 1980.42,-96.88"/>
<text xml:space="preserve" text-anchor="start" x="2046" y="-103.88" font-family="arial" font-size="14.00">RX_GICAR</text>
<polygon fill="none" stroke="black" points="2181.33,-96.88 2181.33,-120.62 2314.75,-120.62 2314.75,-96.88 2181.33,-96.88"/>
<text xml:space="preserve" text-anchor="start" x="2244.29" y="-103.88" font-family="arial" font-size="14.00">2</text>
<polygon fill="none" stroke="black" points="1847,-73.12 1847,-96.88 1980.42,-96.88 1980.42,-73.12 1847,-73.12"/>
<text xml:space="preserve" text-anchor="start" x="1909.96" y="-80.12" font-family="arial" font-size="14.00">3</text>
<polygon fill="none" stroke="black" points="1980.42,-73.12 1980.42,-96.88 2181.33,-96.88 2181.33,-73.12 1980.42,-73.12"/>
<text xml:space="preserve" text-anchor="start" x="2044.12" y="-80.12" font-family="arial" font-size="14.00">TX_BOARD</text>
<polygon fill="none" stroke="black" points="2181.33,-73.12 2181.33,-96.88 2314.75,-96.88 2314.75,-73.12 2181.33,-73.12"/>
<text xml:space="preserve" text-anchor="start" x="2244.29" y="-80.12" font-family="arial" font-size="14.00">3</text>
<polygon fill="none" stroke="black" points="1847,-49.38 1847,-73.12 1980.42,-73.12 1980.42,-49.38 1847,-49.38"/>
<text xml:space="preserve" text-anchor="start" x="1909.96" y="-56.38" font-family="arial" font-size="14.00">4</text>
<polygon fill="none" stroke="black" points="1980.42,-49.38 1980.42,-73.12 2181.33,-73.12 2181.33,-49.38 1980.42,-49.38"/>
<text xml:space="preserve" text-anchor="start" x="2043.38" y="-56.38" font-family="arial" font-size="14.00">RX_BOARD</text>
<polygon fill="none" stroke="black" points="2181.33,-49.38 2181.33,-73.12 2314.75,-73.12 2314.75,-49.38 2181.33,-49.38"/>
<text xml:space="preserve" text-anchor="start" x="2244.29" y="-56.38" font-family="arial" font-size="14.00">4</text>
<polygon fill="none" stroke="black" points="1847,-25.62 1847,-49.38 1980.42,-49.38 1980.42,-25.62 1847,-25.62"/>
<text xml:space="preserve" text-anchor="start" x="1909.96" y="-32.62" font-family="arial" font-size="14.00">5</text>
<polygon fill="none" stroke="black" points="1980.42,-25.62 1980.42,-49.38 2181.33,-49.38 2181.33,-25.62 1980.42,-25.62"/>
<text xml:space="preserve" text-anchor="start" x="2065.5" y="-32.62" font-family="arial" font-size="14.00">GND</text>
<polygon fill="none" stroke="black" points="2181.33,-25.62 2181.33,-49.38 2314.75,-49.38 2314.75,-25.62 2181.33,-25.62"/>
<text xml:space="preserve" text-anchor="start" x="2244.29" y="-32.62" font-family="arial" font-size="14.00">5</text>
<polygon fill="none" stroke="black" points="1847,-1.88 1847,-25.62 2314.75,-25.62 2314.75,-1.88 1847,-1.88"/>
<text xml:space="preserve" text-anchor="start" x="1851" y="-8.88" font-family="arial" font-size="14.00">Board end. R3 series on TX. R1/R2 divider on RX. Values in the BOM below.</text>
</g>
<!-- BOARD_SIDE -->
<g id="node5" class="node">
<title>BOARD_SIDE</title>
<polygon fill="#ffffff" stroke="black" points="2789.5,-177 2458.75,-177 2458.75,-12.75 2789.5,-12.75 2789.5,-177"/>
<polygon fill="none" stroke="black" points="2458.75,-153.25 2458.75,-177 2789.5,-177 2789.5,-153.25 2458.75,-153.25"/>
<text xml:space="preserve" text-anchor="start" x="2580.25" y="-160.25" font-family="arial" font-size="14.00">BOARD_SIDE</text>
<polygon fill="none" stroke="black" points="2458.75,-129.5 2458.75,-153.25 2547.25,-153.25 2547.25,-129.5 2458.75,-129.5"/>
<text xml:space="preserve" text-anchor="start" x="2495.88" y="-136.5" font-family="arial" font-size="14.00">3x</text>
<polygon fill="none" stroke="black" points="2547.25,-129.5 2547.25,-153.25 2673.25,-153.25 2673.25,-129.5 2547.25,-129.5"/>
<text xml:space="preserve" text-anchor="start" x="2584.38" y="-136.5" font-family="arial" font-size="14.00">26 AWG</text>
<polygon fill="none" stroke="black" points="2673.25,-129.5 2673.25,-153.25 2789.5,-153.25 2789.5,-129.5 2673.25,-129.5"/>
<text xml:space="preserve" text-anchor="start" x="2710.38" y="-136.5" font-family="arial" font-size="14.00">0.05 m</text>
<text xml:space="preserve" text-anchor="start" x="2531.25" y="-114.75" font-family="arial" font-size="14.00"> </text>
<text xml:space="preserve" text-anchor="start" x="2461.5" y="-95" font-family="arial" font-size="14.00">DIVIDER:3:TX_BOARD</text>
<text xml:space="preserve" text-anchor="start" x="2609.5" y="-95" font-family="arial" font-size="14.00"> &#160;&#160;&#160;&#160;1:WH &#160;&#160;&#160;</text>
<text xml:space="preserve" text-anchor="start" x="2682.5" y="-95" font-family="arial" font-size="14.00">J4:2:TX_GPIO43</text>
<polygon fill="#000000" stroke="none" points="2458.75,-88 2458.75,-90 2789.5,-90 2789.5,-88 2458.75,-88"/>
<polygon fill="#ffffff" stroke="none" points="2458.75,-86 2458.75,-88 2789.5,-88 2789.5,-86 2458.75,-86"/>
<polygon fill="#000000" stroke="none" points="2458.75,-84 2458.75,-86 2789.5,-86 2789.5,-84 2458.75,-84"/>
<text xml:space="preserve" text-anchor="start" x="2460.75" y="-69.25" font-family="arial" font-size="14.00">DIVIDER:4:RX_BOARD</text>
<text xml:space="preserve" text-anchor="start" x="2610.62" y="-69.25" font-family="arial" font-size="14.00"> &#160;&#160;&#160;&#160;2:GN &#160;&#160;&#160;</text>
<text xml:space="preserve" text-anchor="start" x="2681.75" y="-69.25" font-family="arial" font-size="14.00">J4:3:RX_GPIO44</text>
<polygon fill="#000000" stroke="none" points="2458.75,-62.25 2458.75,-64.25 2789.5,-64.25 2789.5,-62.25 2458.75,-62.25"/>
<polygon fill="#00ff00" stroke="none" points="2458.75,-60.25 2458.75,-62.25 2789.5,-62.25 2789.5,-60.25 2458.75,-60.25"/>
<polygon fill="#000000" stroke="none" points="2458.75,-58.25 2458.75,-60.25 2789.5,-60.25 2789.5,-58.25 2458.75,-58.25"/>
<text xml:space="preserve" text-anchor="start" x="2482.88" y="-43.5" font-family="arial" font-size="14.00">DIVIDER:5:GND</text>
<text xml:space="preserve" text-anchor="start" x="2612.12" y="-43.5" font-family="arial" font-size="14.00"> &#160;&#160;&#160;&#160;3:BK &#160;&#160;&#160;</text>
<text xml:space="preserve" text-anchor="start" x="2704.62" y="-43.5" font-family="arial" font-size="14.00">J4:4:GND</text>
<polygon fill="#000000" stroke="none" points="2458.75,-36.5 2458.75,-38.5 2789.5,-38.5 2789.5,-36.5 2458.75,-36.5"/>
<polygon fill="#000000" stroke="none" points="2458.75,-34.5 2458.75,-36.5 2789.5,-36.5 2789.5,-34.5 2458.75,-34.5"/>
<polygon fill="#000000" stroke="none" points="2458.75,-32.5 2458.75,-34.5 2789.5,-34.5 2789.5,-32.5 2458.75,-32.5"/>
<text xml:space="preserve" text-anchor="start" x="2531.25" y="-17.75" font-family="arial" font-size="14.00"> </text>
</g>
<!-- DIVIDER&#45;&#45;BOARD_SIDE -->
<g id="edge7" class="edge">
<title>DIVIDER:e&#45;&#45;BOARD_SIDE:w</title>
<path fill="none" stroke="#000000" stroke-width="2" d="M2314.75,-83C2379,-83.02 2394.99,-85.02 2458.75,-85"/>
<path fill="none" stroke="#ffffff" stroke-width="2" d="M2314.75,-85C2378.76,-85 2394.74,-87 2458.75,-87"/>
<path fill="none" stroke="#000000" stroke-width="2" d="M2314.75,-87C2378.51,-86.98 2394.5,-88.98 2458.75,-89"/>
</g>
<!-- DIVIDER&#45;&#45;BOARD_SIDE -->
<g id="edge9" class="edge">
<title>DIVIDER:e&#45;&#45;BOARD_SIDE:w</title>
<path fill="none" stroke="#000000" stroke-width="2" d="M2314.75,-59.25C2378.75,-59.25 2394.75,-59.25 2458.75,-59.25"/>
<path fill="none" stroke="#00ff00" stroke-width="2" d="M2314.75,-61.25C2378.75,-61.25 2394.75,-61.25 2458.75,-61.25"/>
<path fill="none" stroke="#000000" stroke-width="2" d="M2314.75,-63.25C2378.75,-63.25 2394.75,-63.25 2458.75,-63.25"/>
</g>
<!-- DIVIDER&#45;&#45;BOARD_SIDE -->
<g id="edge11" class="edge">
<title>DIVIDER:e&#45;&#45;BOARD_SIDE:w</title>
<path fill="none" stroke="#000000" stroke-width="2" d="M2314.75,-35.5C2378.51,-35.52 2394.5,-33.52 2458.75,-33.5"/>
<path fill="none" stroke="#000000" stroke-width="2" d="M2314.75,-37.5C2378.76,-37.5 2394.74,-35.5 2458.75,-35.5"/>
<path fill="none" stroke="#000000" stroke-width="2" d="M2314.75,-39.5C2379,-39.48 2394.99,-37.48 2458.75,-37.5"/>
</g>
<!-- J4 -->
<g id="node3" class="node">
<title>J4</title>
<polygon fill="#ffffff" stroke="black" points="3290.25,-169 2933.5,-169 2933.5,-2.75 3290.25,-2.75 3290.25,-169"/>
<polygon fill="none" stroke="black" points="2933.5,-145.25 2933.5,-169 3290.25,-169 3290.25,-145.25 2933.5,-145.25"/>
<text xml:space="preserve" text-anchor="start" x="3104.75" y="-152.25" font-family="arial" font-size="14.00">J4</text>
<polygon fill="none" stroke="black" points="2933.5,-121.5 2933.5,-145.25 3107.67,-145.25 3107.67,-121.5 2933.5,-121.5"/>
<text xml:space="preserve" text-anchor="start" x="2961.33" y="-128.5" font-family="arial" font-size="14.00">JST XHP&#45;4 housing</text>
<polygon fill="none" stroke="black" points="3107.67,-121.5 3107.67,-145.25 3204.58,-145.25 3204.58,-121.5 3107.67,-121.5"/>
<text xml:space="preserve" text-anchor="start" x="3135.5" y="-128.5" font-family="arial" font-size="14.00">female</text>
<polygon fill="none" stroke="black" points="3204.58,-121.5 3204.58,-145.25 3290.25,-145.25 3290.25,-121.5 3204.58,-121.5"/>
<text xml:space="preserve" text-anchor="start" x="3232.42" y="-128.5" font-family="arial" font-size="14.00">4&#45;pin</text>
<polygon fill="none" stroke="black" points="2933.5,-97.75 2933.5,-121.5 3077.38,-121.5 3077.38,-97.75 2933.5,-97.75"/>
<text xml:space="preserve" text-anchor="start" x="3001.69" y="-104.75" font-family="arial" font-size="14.00">1</text>
<polygon fill="none" stroke="black" points="3077.38,-97.75 3077.38,-121.5 3290.25,-121.5 3290.25,-97.75 3077.38,-97.75"/>
<text xml:space="preserve" text-anchor="start" x="3171.44" y="-104.75" font-family="arial" font-size="14.00">+5V</text>
<polygon fill="none" stroke="black" points="2933.5,-74 2933.5,-97.75 3077.38,-97.75 3077.38,-74 2933.5,-74"/>
<text xml:space="preserve" text-anchor="start" x="3001.69" y="-81" font-family="arial" font-size="14.00">2</text>
<polygon fill="none" stroke="black" points="3077.38,-74 3077.38,-97.75 3290.25,-97.75 3290.25,-74 3077.38,-74"/>
<text xml:space="preserve" text-anchor="start" x="3146.31" y="-81" font-family="arial" font-size="14.00">TX_GPIO43</text>
<polygon fill="none" stroke="black" points="2933.5,-50.25 2933.5,-74 3077.38,-74 3077.38,-50.25 2933.5,-50.25"/>
<text xml:space="preserve" text-anchor="start" x="3001.69" y="-57.25" font-family="arial" font-size="14.00">3</text>
<polygon fill="none" stroke="black" points="3077.38,-50.25 3077.38,-74 3290.25,-74 3290.25,-50.25 3077.38,-50.25"/>
<text xml:space="preserve" text-anchor="start" x="3145.56" y="-57.25" font-family="arial" font-size="14.00">RX_GPIO44</text>
<polygon fill="none" stroke="black" points="2933.5,-26.5 2933.5,-50.25 3077.38,-50.25 3077.38,-26.5 2933.5,-26.5"/>
<text xml:space="preserve" text-anchor="start" x="3001.69" y="-33.5" font-family="arial" font-size="14.00">4</text>
<polygon fill="none" stroke="black" points="3077.38,-26.5 3077.38,-50.25 3290.25,-50.25 3290.25,-26.5 3077.38,-26.5"/>
<text xml:space="preserve" text-anchor="start" x="3168.44" y="-33.5" font-family="arial" font-size="14.00">GND</text>
<polygon fill="none" stroke="black" points="2933.5,-2.75 2933.5,-26.5 3290.25,-26.5 3290.25,-2.75 2933.5,-2.75"/>
<text xml:space="preserve" text-anchor="start" x="2937.5" y="-9.75" font-family="arial" font-size="14.00">GaggiMate Pro Rev 1.1 UART port. +5V left unconnected.</text>
</g>
<!-- GICAR_SIDE&#45;&#45;DIVIDER -->
<g id="edge2" class="edge">
<title>GICAR_SIDE:e&#45;&#45;DIVIDER:w</title>
<path fill="none" stroke="#000000" stroke-width="2" d="M1703,-130C1767.06,-130 1783.06,-130.5 1847,-130.5"/>
<path fill="none" stroke="#ffffff" stroke-width="2" d="M1703,-132C1767,-132 1783,-132.5 1847,-132.5"/>
<path fill="none" stroke="#000000" stroke-width="2" d="M1703,-134C1766.94,-134 1782.94,-134.5 1847,-134.5"/>
</g>
<!-- GICAR_SIDE&#45;&#45;DIVIDER -->
<g id="edge4" class="edge">
<title>GICAR_SIDE:e&#45;&#45;DIVIDER:w</title>
<path fill="none" stroke="#000000" stroke-width="2" d="M1703,-104.25C1767.32,-104.27 1783.3,-106.77 1847,-106.75"/>
<path fill="none" stroke="#00ff00" stroke-width="2" d="M1703,-106.25C1767.01,-106.25 1782.99,-108.75 1847,-108.75"/>
<path fill="none" stroke="#000000" stroke-width="2" d="M1703,-108.25C1766.7,-108.23 1782.68,-110.73 1847,-110.75"/>
</g>
<!-- GICAR_SIDE&#45;&#45;DIVIDER -->
<g id="edge6" class="edge">
<title>GICAR_SIDE:e&#45;&#45;DIVIDER:w</title>
<path fill="none" stroke="#000000" stroke-width="2" d="M1703,-78.5C1767.85,-80.03 1778.26,-37.03 1847,-35.5"/>
<path fill="none" stroke="#000000" stroke-width="2" d="M1703,-80.5C1769.79,-80.5 1780.21,-37.5 1847,-37.5"/>
<path fill="none" stroke="#000000" stroke-width="2" d="M1703,-82.5C1771.74,-80.97 1782.15,-37.97 1847,-39.5"/>
</g>
<!-- BOARD_SIDE&#45;&#45;J4 -->
<g id="edge8" class="edge">
<title>BOARD_SIDE:e&#45;&#45;J4:w</title>
<path fill="none" stroke="#000000" stroke-width="2" d="M2789.5,-85C2853.36,-85 2869.36,-83.88 2933.5,-83.88"/>
<path fill="none" stroke="#ffffff" stroke-width="2" d="M2789.5,-87C2853.5,-87 2869.5,-85.88 2933.5,-85.88"/>
<path fill="none" stroke="#000000" stroke-width="2" d="M2789.5,-89C2853.64,-89 2869.64,-87.87 2933.5,-87.87"/>
</g>
<!-- BOARD_SIDE&#45;&#45;J4 -->
<g id="edge10" class="edge">
<title>BOARD_SIDE:e&#45;&#45;J4:w</title>
<path fill="none" stroke="#000000" stroke-width="2" d="M2789.5,-59.25C2853.61,-59.25 2869.61,-60.13 2933.5,-60.13"/>
<path fill="none" stroke="#00ff00" stroke-width="2" d="M2789.5,-61.25C2853.5,-61.25 2869.5,-62.13 2933.5,-62.12"/>
<path fill="none" stroke="#000000" stroke-width="2" d="M2789.5,-63.25C2853.39,-63.25 2869.39,-64.12 2933.5,-64.12"/>
</g>
<!-- BOARD_SIDE&#45;&#45;J4 -->
<g id="edge12" class="edge">
<title>BOARD_SIDE:e&#45;&#45;J4:w</title>
<path fill="none" stroke="#000000" stroke-width="2" d="M2789.5,-33.5C2853.87,-33.53 2869.84,-36.41 2933.5,-36.38"/>
<path fill="none" stroke="#000000" stroke-width="2" d="M2789.5,-35.5C2853.51,-35.5 2869.49,-38.38 2933.5,-38.37"/>
<path fill="none" stroke="#000000" stroke-width="2" d="M2789.5,-37.5C2853.16,-37.47 2869.13,-40.34 2933.5,-40.37"/>
</g>
</g>
</svg>
